<svg width="180" height="147" viewBox="0 0 180 147" fill="none" xmlns="http://www.w3.org/2000/svg">
<path fill-rule="evenodd" clip-rule="evenodd" d="M39.5167 96.9136H136.841C137.814 95.7796 138.8 94.5916 139.785 93.3508C149.437 81.1933 154.62 69.6768 154.775 60.0466C154.907 51.8799 151.586 44.9257 144.624 38.7876C139.53 34.2962 133.813 32.1128 127.148 32.1128C121.415 32.1128 115.016 33.735 108.126 36.9341L107.857 37.0572C100.55 40.317 94.4052 41.9064 88.5185 42.0593L88.1788 42.0682L87.8396 42.0593C81.9529 41.9061 75.8082 40.317 68.5008 37.0572L68.2523 36.9429C61.3545 33.7377 54.948 32.1128 49.2105 32.1128C42.5443 32.1128 36.8276 34.2959 31.7338 38.7872C24.7716 44.926 21.4511 51.8799 21.5827 60.0466C21.7379 69.6768 26.9215 81.1933 36.5731 93.3508C37.5578 94.5916 38.5436 95.7796 39.5167 96.9136Z" fill="#5355C3"/>
<path opacity="0.4" fill-rule="evenodd" clip-rule="evenodd" d="M144.751 38.7876C139.721 34.2962 134.075 32.1128 127.492 32.1128C124.738 32.1128 121.826 32.5 118.779 33.2632C122.198 34.3368 129.878 35.5585 135.259 40.1893C142.182 46.1483 146.877 52.966 146.877 61.1361C146.877 73.7122 128.453 94.9629 127.492 96.0972L137.065 96.9136C138.026 95.7796 138.999 94.5913 139.972 93.3508C149.503 81.1933 154.622 69.6768 154.775 60.0466C154.905 51.8802 151.626 44.9257 144.751 38.7876Z" fill="#4143AE"/>
<path fill-rule="evenodd" clip-rule="evenodd" d="M117.918 84.1771C117.918 84.1771 114.344 44.337 88.18 10.5127C88.1797 10.513 88.1793 10.5138 88.179 10.5141C88.1786 10.5134 88.1783 10.513 88.1779 10.5127C62.014 44.337 58.4396 84.1771 58.4396 84.1771C31.1225 62.4161 7.17896 55.3635 7.17896 55.3635C7.17896 55.3635 27.1892 84.7103 41.0072 139.969L88.179 140.113L135.351 139.969C149.169 84.7103 169.179 55.3635 169.179 55.3635C169.179 55.3635 145.235 62.4161 117.918 84.1771Z" fill="#F0916E"/>
<path fill-rule="evenodd" clip-rule="evenodd" d="M88.1656 10.5591C84.9094 14.7836 81.9696 19.1595 79.3555 23.482C91.0328 43.3467 97.8253 64.4548 101.293 79.6091C103.136 87.6659 110.792 91.6171 118.878 83.4776C118.454 79.449 113.874 43.9367 88.1656 10.5591Z" fill="#D57B59"/>
<path fill-rule="evenodd" clip-rule="evenodd" d="M122.379 132.912H137.901C150.677 81.1836 170.234 53.9707 170.234 53.9707C170.234 53.9707 161.057 57.4338 148.612 64.1854C148.612 64.1854 130.84 98.6535 122.379 132.912Z" fill="#D57B59"/>
<mask id="mask0" mask-type="alpha" maskUnits="userSpaceOnUse" x="0" y="0" width="180" height="147">
<path fill-rule="evenodd" clip-rule="evenodd" d="M0 0H179.628V146.81H0V0Z" fill="white"/>
</mask>
<g mask="url(#mask0)">
<path fill-rule="evenodd" clip-rule="evenodd" d="M89.7807 16.8525C85.0821 16.8404 81.2691 13.0502 81.2814 8.40407C81.2937 3.7701 85.1165 0 89.8032 0C94.5249 0.0121426 98.3379 3.80237 98.3257 8.44847C98.3134 13.0824 94.4906 16.8525 89.8039 16.8525H89.7807Z" fill="#4143AE"/>
<path fill-rule="evenodd" clip-rule="evenodd" d="M171.083 62.3384C166.385 62.3262 162.572 58.5358 162.584 53.8898C162.596 49.2556 166.418 45.4854 171.105 45.4854C175.827 45.4975 179.64 49.2876 179.628 53.9342C179.616 58.5684 175.793 62.3384 171.106 62.3384H171.083Z" fill="#4143AE"/>
<path fill-rule="evenodd" clip-rule="evenodd" d="M8.47868 61.9136C3.78008 61.9014 -0.0332472 58.1112 -0.0209665 53.4652C-0.00868582 48.8316 3.81412 45.0615 8.50043 45.0615C10.7997 45.0674 12.9376 45.9493 14.5429 47.5448C16.1485 49.1407 17.0292 51.2591 17.0229 53.5096C17.0106 58.1435 13.1881 61.9136 8.50148 61.9136H8.47868Z" fill="#4143AE"/>
<path fill-rule="evenodd" clip-rule="evenodd" d="M28.7927 140.353C29.7014 144.634 33.8783 147.444 38.2348 146.684C72.5134 140.703 107.093 140.703 141.372 146.684C145.729 147.444 149.906 144.634 150.814 140.353C151.769 135.856 148.761 131.481 144.184 130.683C108.057 124.383 71.5502 124.383 35.4235 130.683C30.8463 131.481 27.8379 135.856 28.7927 140.353Z" fill="#5355C3"/>
<path fill-rule="evenodd" clip-rule="evenodd" d="M136.393 129.427C136.393 129.427 136.44 134.515 135.77 137.434C135.1 140.353 132.902 145.333 132.902 145.333C135.727 145.744 138.551 146.192 141.372 146.684C145.729 147.444 149.905 144.634 150.814 140.353C151.769 135.856 148.76 131.481 144.183 130.683C141.589 130.231 138.991 129.814 136.393 129.427Z" fill="#4143AE"/>
</g>
<path fill-rule="evenodd" clip-rule="evenodd" d="M56.1791 101.513C60.1557 101.513 63.3791 104.736 63.3791 108.712C63.3791 112.688 60.1557 115.912 56.1791 115.912C52.2026 115.912 48.9791 112.688 48.9791 108.712C48.9791 104.736 52.2026 101.513 56.1791 101.513Z" fill="#5355C3"/>
<path fill-rule="evenodd" clip-rule="evenodd" d="M111.779 101.513C115.756 101.513 118.979 104.736 118.979 108.712C118.979 112.688 115.756 115.912 111.779 115.912C107.803 115.912 104.579 112.688 104.579 108.712C104.579 104.736 107.803 101.513 111.779 101.513Z" fill="#5355C3"/>
<path fill-rule="evenodd" clip-rule="evenodd" d="M83.9789 97.9121C87.9554 97.9121 91.1789 101.136 91.1789 105.112C91.1789 109.089 87.9554 112.312 83.9789 112.312C80.0024 112.312 76.7789 109.089 76.7789 105.112C76.7789 101.136 80.0024 97.9121 83.9789 97.9121Z" fill="#5355C3"/>
</svg>
