<svg width="153" height="140" viewBox="0 0 153 140" fill="none" xmlns="http://www.w3.org/2000/svg">
<path fill-rule="evenodd" clip-rule="evenodd" d="M139.772 61.084H13.3178C11.9931 61.084 10.9199 62.1514 10.9199 63.4683V137.45C10.9199 138.766 11.9931 139.834 13.3178 139.834H139.772C141.097 139.834 142.17 138.766 142.17 137.45V63.4683C142.17 62.1511 141.097 61.084 139.772 61.084Z" fill="#5355C3"/>
<path fill-rule="evenodd" clip-rule="evenodd" d="M139.772 61.084H13.3178C11.9931 61.084 10.9199 62.0632 10.9199 63.2714V72.0215H142.17V63.2714C142.17 62.063 141.097 61.084 139.772 61.084Z" fill="#4143AE"/>
<path fill-rule="evenodd" clip-rule="evenodd" d="M87.3424 61.084H63.5603C62.2744 61.084 61.2324 62.1514 61.2324 63.4683V137.45C61.2324 138.766 62.2744 139.834 63.5603 139.834H87.3424C88.6278 139.834 89.67 138.766 89.67 137.45V63.4683C89.67 62.1511 88.6278 61.084 87.3424 61.084Z" fill="#F0916E"/>
<mask id="mask0" mask-type="alpha" maskUnits="userSpaceOnUse" x="14" y="0" width="121" height="74">
<path fill-rule="evenodd" clip-rule="evenodd" d="M14.1592 0H134.137V73.5195H14.1592V0Z" fill="white"/>
</mask>
<g mask="url(#mask0)">
<path fill-rule="evenodd" clip-rule="evenodd" d="M87.3894 61.7153H63.5646C62.2764 61.7153 61.2325 62.642 61.2325 63.7854V72.0215H89.7212V63.7854C89.7212 62.6418 88.677 61.7153 87.3894 61.7153Z" fill="#D88060"/>
<path fill-rule="evenodd" clip-rule="evenodd" d="M131.673 17.9177C129.363 11.8584 125.718 5.94052 121.923 2.08665C120.53 0.672503 118.655 -0.0439564 116.52 0.00208703C109.447 0.167785 97.9199 9.10198 82.2607 26.5554C81.8696 26.9912 81.6533 27.5572 81.6533 28.1443V40.6849C81.6533 41.9943 82.7077 43.0557 84.0092 43.0557H120.249C128.324 43.0557 131.657 39.1024 133.031 35.7858C134.862 31.3644 134.38 25.0187 131.673 17.9177Z" fill="#F0916E"/>
<path fill-rule="evenodd" clip-rule="evenodd" d="M133.022 22.0482C132.956 21.8048 132.852 21.5734 132.713 21.3631C129.156 15.9503 121.469 17.9756 115.647 20.6276C98.7329 28.332 91.748 38.945 91.4589 39.3932C90.9882 40.1225 90.9524 41.0519 91.3645 41.8158C91.7766 42.5798 92.571 43.0552 93.4348 43.0552H120.25C125.388 43.0552 129.198 41.468 131.575 38.338C134.399 34.6191 134.899 28.986 133.022 22.0482Z" fill="#FDB195"/>
<path fill-rule="evenodd" clip-rule="evenodd" d="M66.0222 26.5549C50.3629 9.10183 38.836 0.167805 31.7625 0.00211049C29.6225 -0.0442254 27.7521 0.673101 26.3597 2.08664C22.565 5.93985 18.9198 11.8582 16.61 17.9174C13.9029 25.0182 13.4206 31.3639 15.2519 35.7854C16.6257 39.102 19.9582 43.0552 28.0337 43.0552H64.2736C65.5751 43.0552 66.6295 41.9939 66.6295 40.6844V28.1441C66.6295 27.5567 66.4136 26.9907 66.0222 26.5549Z" fill="#F0916E"/>
</g>
<path fill-rule="evenodd" clip-rule="evenodd" d="M32.8944 19.8993C26.9785 17.3568 19.8332 14.7114 16.2186 19.8993C16.078 20.1011 15.4974 21.2655 15.4301 21.4991C13.5226 28.1497 13.6793 34.5752 16.575 38.1331C18.4322 40.4149 22.9967 41.3979 28.218 41.3979H55.4636C56.3413 41.3979 57.1485 40.9422 57.5672 40.2099C57.9859 39.4779 57.9492 38.587 57.4712 37.8878C57.1775 37.4583 50.0803 27.2847 32.8944 19.8993Z" fill="#FDB195"/>
<mask id="mask1" mask-type="alpha" maskUnits="userSpaceOnUse" x="0" y="24" width="153" height="42">
<path fill-rule="evenodd" clip-rule="evenodd" d="M0 24.0264H152.982V65.3833H0V24.0264Z" fill="white"/>
</mask>
<g mask="url(#mask1)">
<path fill-rule="evenodd" clip-rule="evenodd" d="M86.2505 24.0264H66.3288C65.015 24.0264 63.9507 25.0468 63.9507 26.3052V40.6123C63.9507 41.8709 65.015 42.8911 66.3288 42.8911H86.2505C87.5643 42.8911 88.6286 41.8709 88.6286 40.6123V26.3052C88.6286 25.0468 87.5643 24.0264 86.2505 24.0264Z" fill="#D57B59"/>
<path fill-rule="evenodd" clip-rule="evenodd" d="M149.219 38.355H3.36036C2.0466 38.355 0.9823 39.3751 0.9823 40.6338V63.1211C0.9823 64.3797 2.0466 65.3999 3.36036 65.3999H149.219C150.533 65.3999 151.597 64.3797 151.597 63.1211V40.6338C151.597 39.3751 150.533 38.355 149.219 38.355Z" fill="#5355C3"/>
</g>
<path fill-rule="evenodd" clip-rule="evenodd" d="M56.8574 65.3921H94.0449V38.3433H56.8574V65.3921Z" fill="#F0916E"/>
</svg>
